<svg aria-hidden="true" style="width:0;height:0;position:absolute;overflow:hidden" xmlns="http://www.w3.org/2000/svg"><defs><symbol id="icon-search" viewBox="0 0 32 32"><path fill="none" stroke-linejoin="round" stroke-linecap="round" stroke-width="2.667" d="M14.667 25.333c5.891 0 10.667-4.776 10.667-10.667S20.558 3.999 14.667 3.999 4 8.775 4 14.666s4.776 10.667 10.667 10.667zM28 28l-5.8-5.8"/></symbol><symbol id="icon-film" viewBox="0 0 32 32"><path fill="none" stroke-linejoin="round" stroke-linecap="round" stroke-width="2.667" d="M26.427 2.667H5.574a2.907 2.907 0 0 0-2.907 2.907v20.853a2.907 2.907 0 0 0 2.907 2.907h20.853a2.907 2.907 0 0 0 2.907-2.907V5.574a2.907 2.907 0 0 0-2.907-2.907zm-17.094 0v26.667M22.667 2.667v26.667M2.667 16h26.667M2.667 9.333h6.667M2.667 22.667h6.667m13.333 0h6.667M22.667 9.333h6.667"/></symbol><symbol id="icon-logo-1" viewBox="0 0 31 32"><path d="M6.236 6.101c-.479.299-1.002 1.286-1.002 1.884 0 .673.434 2.183.927 3.23.568 1.181 1.929 3.454 2.557 4.232l.449.568-.359.479c-1.555 2.093-2.916 4.68-3.35 6.385-.583 2.273.449 3.634 2.557 3.379 1.69-.194 4.441-1.495 6.579-3.11.419-.314.852-.568.957-.568s.538.254.957.568c1.824 1.361 3.843 2.407 5.473 2.856 1.346.374 1.899.389 2.707.06.763-.299 1.032-.867 1.032-2.168 0-1.6-1.151-4.381-2.467-5.951a11.293 11.293 0 0 1-.912-1.286l-.389-.643.479-.643c1.779-2.467 2.707-4.202 3.14-5.877L25.87 8.3l-.299-1.002c-.239-.807-.389-1.062-.748-1.241-.538-.284-1.944-.284-2.841-.015-1.54.479-3.978 1.764-5.533 2.931-.449.329-.897.568-1.002.538-.105-.045-.553-.344-.987-.658-1.062-.807-4.441-2.557-5.383-2.811-1.077-.284-2.333-.254-2.841.06zm3.185 1.57c.568.209 4.396 2.692 4.576 2.961.06.105-.688.957-1.854 2.123l-1.944 1.944-1.002-1.51C7.806 11.066 7.133 9.57 7.059 8.404l-.06-.927h.942c.523.015 1.196.105 1.48.194zm14.699.135c.224.852-.987 3.723-2.437 5.772l-.763 1.092-1.929-1.914c-1.062-1.047-1.944-1.959-1.944-2.019 0-.165 1.75-1.361 2.901-2.004 1.391-.763 2.721-1.241 3.469-1.241.523-.015.643.045.703.314zm-6.37 6.041c1.092 1.121 1.989 2.108 1.989 2.198 0 .224-3.933 4.142-4.172 4.142-.209 0-3.843-3.499-4.067-3.918-.209-.389 1.271-2.258 2.736-3.439.688-.553 1.301-1.002 1.376-1.002.09-.015 1.047.897 2.138 2.019zm-5.503 5.637 1.929 1.914-.613.449c-2.123 1.54-4.486 2.647-5.757 2.721-.643.03-.703 0-.763-.344-.12-.912.628-2.931 1.735-4.665.748-1.151 1.421-2.078 1.48-2.034.015.03.912.912 1.989 1.959zm9.39-1.047c1.884 2.796 2.916 5.518 2.318 6.116-.284.284-1.75-.105-3.275-.852-1.406-.703-3.634-2.108-3.634-2.303 0-.06.404-.508.912-1.002a57.602 57.602 0 0 0 1.899-1.899c.538-.553 1.017-1.002 1.062-1.002s.374.419.718.942z"/></symbol><symbol id="icon--1" viewBox="0 0 32 32"><path d="M12.074 6.809c-.198.124-.415.533-.415.781 0 .279.18.905.384 1.34.236.49.8 1.433 1.06 1.755l.186.236-.149.198c-.645.868-1.209 1.941-1.389 2.648-.242.943.186 1.507 1.06 1.402.701-.081 1.842-.62 2.729-1.29.174-.13.354-.236.397-.236s.223.105.397.236c.757.564 1.594.998 2.27 1.184.558.155.788.161 1.122.025.316-.124.428-.36.428-.899 0-.664-.478-1.817-1.023-2.468a4.719 4.719 0 0 1-.378-.533l-.161-.267.198-.267c.738-1.023 1.122-1.743 1.302-2.437l.124-.496-.124-.415c-.099-.335-.161-.44-.31-.515-.223-.118-.806-.118-1.178-.006-.639.198-1.65.732-2.295 1.216-.186.136-.372.236-.415.223a4.604 4.604 0 0 1-.409-.273c-.44-.335-1.842-1.06-2.233-1.166-.447-.118-.967-.105-1.178.025zm1.321.651c.236.087 1.823 1.116 1.898 1.228.025.043-.285.397-.769.881l-.806.806-.415-.626c-.577-.881-.856-1.501-.887-1.984l-.025-.385h.391c.217.006.496.043.614.081zm6.096.056c.093.354-.409 1.544-1.011 2.394l-.316.453-.8-.794c-.44-.434-.806-.812-.806-.837 0-.068.726-.564 1.203-.831.577-.316 1.129-.515 1.439-.515.217-.006.267.019.291.13zm-2.641 2.506c.453.465.825.874.825.912 0 .093-1.631 1.718-1.73 1.718-.087 0-1.594-1.451-1.687-1.625-.087-.161.527-.936 1.135-1.426.285-.229.54-.415.571-.415.037-.006.434.372.887.837zm-2.283 2.338.8.794-.254.186c-.881.639-1.86 1.098-2.388 1.129-.267.012-.291 0-.316-.143-.05-.378.26-1.216.719-1.935.31-.478.589-.862.614-.843.006.012.378.378.825.812zm3.895-.434c.781 1.16 1.209 2.288.961 2.536-.118.118-.726-.043-1.358-.354-.583-.291-1.507-.874-1.507-.955 0-.025.167-.211.378-.415.211-.198.564-.552.788-.788.223-.229.422-.415.44-.415s.155.174.298.391zM11.305 18.76c-.136.093-.143.143-.143.8 0 .527.025.719.087.775.056.05.285.068.639.056.533-.019.546-.025.564-.174.019-.155.012-.155-.434-.155h-.453l-.019-.49c-.012-.354.006-.509.062-.54.043-.031.254-.056.471-.056.372 0 .391-.006.372-.143-.019-.124-.056-.136-.515-.155-.372-.012-.533.006-.633.081zM13.538 18.71l-.453.025v1.668h.217c.217 0 .217 0 .217-.279 0-.26.012-.279.155-.279.124 0 .198.068.329.279.143.236.198.273.372.279.236 0 .242-.025.068-.304l-.124-.205.124-.124c.105-.093.13-.192.13-.471 0-.583-.105-.639-1.036-.589zm.62.397a.406.406 0 0 1 .019.26c-.037.155-.068.167-.347.167h-.31v-.564l.285.019c.186.012.316.056.354.118zM15.398 19.504c-.174.459-.291.856-.26.868.093.062.366-.043.434-.161.05-.093.13-.118.391-.118.304 0 .335.012.372.155.031.13.074.155.254.155.118 0 .217-.025.217-.05 0-.031-.068-.217-.149-.422-.081-.198-.217-.571-.31-.819-.174-.447-.174-.447-.403-.447h-.236l-.31.837zm.683 0 .099.279h-.217c-.118 0-.211-.031-.211-.062 0-.087.174-.496.211-.496.012 0 .068.124.118.279zM17.302 18.822c0 .149.012.155.403.155.223 0 .403.019.403.037s-.18.26-.403.527c-.298.36-.403.533-.403.676v.186h1.364v-.155c0-.149-.012-.155-.391-.155-.217 0-.409-.019-.434-.037-.019-.019.155-.267.397-.546.304-.354.428-.552.428-.676v-.167h-1.364v.155zM20.186 19.045c-.099.205-.205.391-.229.403-.025.019-.118-.112-.205-.285-.167-.335-.248-.397-.465-.36-.13.019-.124.043.149.583.18.36.285.651.285.794 0 .211.006.223.217.223s.217-.006.217-.242c0-.155.099-.453.279-.837a9.48 9.48 0 0 0 .279-.633c0-.012-.081-.025-.174-.025-.155 0-.198.05-.354.378zM27.969 21.426c0 .05-.056.093-.118.093s-.18.05-.26.112c-.105.093-.136.18-.136.409 0 .384.099.471.571.515.372.037.384.043.366.198s-.031.161-.453.167c-.416.006-.434.012-.434.155 0 .13.031.149.242.167.13.012.285.062.335.118.087.081.099.081.149-.006.031-.056.124-.099.205-.099.229 0 .422-.291.384-.583-.043-.329-.155-.416-.577-.465-.291-.031-.372-.062-.384-.155-.031-.161.093-.223.471-.223.304 0 .322-.012.322-.155 0-.13-.031-.155-.186-.155-.124 0-.186-.031-.186-.093 0-.056-.056-.093-.155-.093s-.155.037-.155.093zM3.206 21.612c-.087.087-.105.236-.105.874v.769h.49c.874 0 .992-.105.998-.874 0-.75-.062-.825-.757-.85-.428-.019-.546-.006-.626.081zm.912.317c.068.062.099.211.099.459 0 .447-.099.571-.428.546l-.223-.019-.019-.546-.019-.54h.248c.143 0 .285.043.341.099zM5.271 22.35c0 .701.012.837.099.868.056.019.347.037.651.037.546 0 .552 0 .552-.155 0-.143-.019-.149-.447-.167l-.453-.019v-.186c0-.186.006-.186.36-.205.329-.019.354-.031.354-.167 0-.149-.019-.155-.378-.155-.372 0-.372 0-.354-.174.019-.161.031-.167.471-.186.428-.019.447-.025.447-.167 0-.155 0-.155-.651-.155h-.651v.831zM7.07 21.575c0 .037.143.428.316.874l.31.806h.459l.298-.794c.161-.434.291-.825.291-.868 0-.037-.068-.074-.155-.074-.18 0-.273.13-.465.682-.081.223-.161.428-.186.453s-.136-.211-.254-.527c-.205-.552-.223-.577-.415-.595-.112-.012-.198.006-.198.043zM9.302 22.388v.868h.583c.453 0 .608-.025.682-.099.174-.167.112-.205-.347-.223l-.453-.019v-.186c0-.186.006-.186.36-.205.329-.019.354-.031.354-.167 0-.149-.019-.155-.378-.155-.372 0-.372 0-.354-.174.019-.161.031-.167.471-.186.428-.019.447-.025.447-.167v-.155H9.303v.868zM11.287 22.288c0 .422.019.812.037.868.031.081.149.099.651.099.608 0 .614 0 .614-.155 0-.143-.019-.149-.415-.167l-.422-.019-.019-.701-.019-.695h-.428v.769zM13.246 21.656c-.074.105-.099.298-.099.769 0 .806.025.831.763.831.75 0 .788-.043.788-.868 0-.831-.037-.868-.8-.868-.509 0-.564.012-.651.136zm1.018.732v.558h-.335c-.391 0-.409-.025-.409-.558s.019-.558.409-.558h.335v.558zM15.38 22.381v.874h.186c.174 0 .186-.012.186-.248v-.248h.36c.478 0 .602-.043.688-.223.099-.217.081-.713-.031-.862-.081-.105-.18-.124-.738-.143l-.651-.025v.874zm.955-.514c.068.025.099.118.099.279 0 .198-.025.248-.149.279a1.073 1.073 0 0 1-.322.012c-.155-.019-.18-.05-.198-.223a.887.887 0 0 1 .012-.298c.037-.087.378-.118.558-.05zM17.488 22.388v.868h1.364v-.155c0-.143-.019-.149-.447-.167l-.453-.019v-.186c0-.186.006-.186.36-.205.329-.019.354-.031.354-.167 0-.149-.019-.155-.378-.155-.372 0-.372 0-.354-.174.019-.161.031-.167.453-.198.384-.025.434-.043.434-.155 0-.118-.05-.124-.664-.143l-.67-.019v.874zM19.473 21.532l-.043.868-.037.856h.223c.217 0 .223-.006.242-.267.019-.229.037-.26.186-.279.136-.019.192.025.329.26.149.254.192.285.384.285h.217l-.155-.26-.149-.26.124-.099c.186-.155.223-.726.056-.93-.118-.143-.174-.155-.75-.174-.347-.012-.626-.012-.626 0zm.955.335c.068.025.099.118.099.279v.242h-.682v-.236c0-.13.019-.26.043-.279.05-.056.409-.056.54-.006zM21.705 21.631c-.198.161-.236.558-.062.769.118.155.174.174.533.174h.397v.372h-.496c-.453 0-.496.012-.496.124 0 .118.037.124.626.112.726-.012.8-.056.8-.447 0-.409-.099-.496-.614-.521-.409-.025-.44-.037-.44-.167 0-.18.099-.217.564-.217.347 0 .366-.006.366-.155 0-.155-.006-.155-.521-.155-.403 0-.552.025-.657.112zM23.609 21.563c-.025.019-.043.093-.043.155 0 .093.05.112.335.112.688 0 .719.174.099.626-.409.298-.434.329-.434.558v.242h1.302v-.155c0-.149-.012-.155-.403-.155-.223 0-.403-.019-.403-.05 0-.025.143-.143.316-.26.372-.248.502-.471.453-.744-.062-.285-.229-.372-.744-.372-.242 0-.459.019-.478.043zM26.388 21.774c-.093.136-.18.291-.198.341s-.099.087-.18.087c-.136 0-.149-.025-.149-.31 0-.304-.006-.31-.186-.31h-.186v1.674h.186c.174 0 .18-.006.198-.36.019-.304.037-.354.143-.354.087 0 .18.105.31.354.167.322.205.36.391.36.105 0 .198-.019.198-.043a3.5 3.5 0 0 0-.223-.434l-.217-.397.217-.391c.124-.223.223-.416.223-.434s-.081-.037-.186-.037c-.149 0-.217.05-.341.254z"/></symbol><symbol id="facebook" fill="none" xmlns="http://www.w3.org/2000/svg"><path d="M17 34c9.389 0 17-7.611 17-17S26.389 0 17 0 0 7.611 0 17s7.611 17 17 17Z"/><path d="M21.724 16.98H18.95V27.2h-4.202V16.98H12.75v-3.59h1.998v-2.324c0-1.662.785-4.265 4.24-4.265l3.112.013V10.3h-2.258c-.37 0-.891.187-.891.98v2.113h3.14l-.367 3.588Z" fill="#fff"/></symbol><symbol id="telegram" fill="none" xmlns="http://www.w3.org/2000/svg"><circle cx="17" cy="17" r="17"/><path d="m13.671 19.524-.337 4.43c.483 0 .692-.194.943-.426l2.263-2.02 4.69 3.207c.861.447 1.467.211 1.7-.739l3.078-13.464v-.001c.274-1.187-.46-1.651-1.297-1.36L6.614 15.617c-1.235.448-1.217 1.09-.21 1.382l4.627 1.343 10.746-6.276c.506-.313.966-.14.588.173l-8.693 7.285Z" fill="#fff"/></symbol><symbol id="github" fill="none" xmlns="http://www.w3.org/2000/svg"><circle cx="17" cy="17" r="17"/><path d="M17 7C11.507 7 7 11.507 7 17c0 4.687 3.289 8.945 7.656 10v-3.308a2.45 2.45 0 0 1-1.271-.033c-.591-.174-1.071-.568-1.428-1.168-.227-.383-.63-.8-1.05-.769l-.103-1.167c.909-.078 1.694.554 2.16 1.337.208.349.447.553.753.643.295.088.613.046.983-.085.093-.741.433-1.018.69-1.41-2.605-.388-3.643-1.77-4.055-2.86-.546-1.449-.253-3.258.712-4.402.019-.022.053-.08.04-.12-.443-1.338.096-2.444.116-2.561.511.15.594-.152 2.22.835l.28.169c.118.07.08.03.198.02A8.484 8.484 0 0 1 17 11.828c.71.009 1.42.11 2.127.302l.091.01c-.008-.002.025-.006.08-.039 2.03-1.23 1.957-.828 2.502-1.005.02.118.551 1.242.113 2.562-.059.182 1.76 1.848.752 4.522-.412 1.09-1.45 2.473-4.054 2.861.334.51.735.78.733 1.83V27C23.71 25.945 27 21.687 27 17c0-5.493-4.507-10-10-10Z" fill="#fff"/></symbol><symbol id="icon-close" viewBox="0 0 32 32"><path stroke-width="2" d="m2.518 2 26.963 28M2 29.481 30 2.518"/></symbol><symbol id="icon-linkedin" viewBox="0 0 32 32"><path d="M12 12h5.535v2.837h.079c.77-1.381 2.655-2.837 5.464-2.837C28.92 12 30 15.637 30 20.367V30h-5.769v-8.54c0-2.037-.042-4.657-3.001-4.657-3.005 0-3.463 2.218-3.463 4.509V30H12V12zM2 12h6v18H2V12zM8 7a3 3 0 1 1-6 0 3 3 0 0 1 6 0z"/></symbol><symbol id="icon-close_24px" viewBox="0 0 32 32"><path d="M31.439 3.166 28.273 0 15.719 12.552 3.167 0 .001 3.166l12.552 12.552L.001 28.272l3.166 3.166 12.552-12.554 12.554 12.554 3.166-3.166-12.554-12.554L31.439 3.166z"/></symbol><symbol id="icon-menu_24px" viewBox="0 0 48 32"><path d="M0 5.334V0h48v5.334H0zm0 13.332h48v-5.332H0v5.332zM0 32h48v-5.334H0V32z"/></symbol><symbol id="icon-close" viewBox="0 0 32 32"><path d="m8.533 8.533 14.933 14.933m-14.933.001L23.466 8.534"/></symbol><symbol id="icon-close-modal" viewBox="0 0 32 32"><path stroke-width="2.133" d="m8.533 8.533 14.933 14.933M8.533 23.467 23.466 8.534"/></symbol><symbol id="icon-person" viewBox="0 0 32 32"><path d="M16 16a5.333 5.333 0 1 0 0-10.666A5.333 5.333 0 1 0 16 16zm0 2.667c-3.561 0-10.667 1.787-10.667 5.333v1.333c0 .732.599 1.333 1.333 1.333h18.667c.732 0 1.333-.601 1.333-1.333V24c0-3.547-7.108-5.333-10.667-5.333z"/></symbol><symbol id="icon-email" viewBox="0 0 32 32"><path d="M26.667 5.333H5.334A2.662 2.662 0 0 0 2.682 8l-.014 16c0 1.467 1.2 2.667 2.667 2.667h21.333c1.467 0 2.667-1.2 2.667-2.667V8c0-1.467-1.2-2.667-2.667-2.667zm-.534 5.668-9.426 5.892a1.343 1.343 0 0 1-1.421-.004l.006.003L5.866 11A1.133 1.133 0 1 1 7.07 9.083l-.004-.003 8.933 5.586 8.933-5.588a1.132 1.132 0 1 1 1.204 1.916l-.005.003z"/></symbol><symbol id="comment-to-us" viewBox="0 0 32 32"><path d="M16 0h.002c8.837 0 16 7.163 16 16s-7.163 16-16 16-16-7.163-16-16A15.95 15.95 0 0 1 4.687 4.687 15.912 15.912 0 0 1 15.986-.001H16h-.001zm-3.292 14.701c.519.96 1.117 1.787 1.806 2.528l-.007-.007a10.248 10.248 0 0 0 2.791 2.077l.058.027a.295.295 0 0 0 .247.012l-.002.001c.136-.064.25-.152.343-.259l.001-.001c.108-.116.21-.24.305-.371l.008-.011c.456-.602 1.026-1.349 1.823-.977l.047.026 2.698 1.552c.307.223.504.58.504.983 0 .021 0 .041-.002.061v-.003c-.02.492-.163.946-.398 1.338l.007-.013a2.727 2.727 0 0 1-1.266 1.126l-.018.007a5.63 5.63 0 0 1-1.554.429l-.029.003a5.361 5.361 0 0 1-2.457-.214l.038.011a10.544 10.544 0 0 1-2.472-1.199l.039.024-.063-.039a21.25 21.25 0 0 1-1.242-.823 15.664 15.664 0 0 1-4.07-4.585l-.04-.074c-.854-1.544-1.32-3.211-1.065-4.802A3.433 3.433 0 0 1 9.89 9.347l.004-.003a3.103 3.103 0 0 1 2.36-.617l-.017-.002a.334.334 0 0 1 .26.17l.001.002 1.711 2.893a.905.905 0 0 1 .141.977l.002-.006a1.92 1.92 0 0 1-.649.725l-.007.004c-.091.081-.201.159-.315.242-.383.279-.818.599-.669.977zm13.058-8.467a13.758 13.758 0 0 0-9.755-4.038c-7.623 0-13.802 6.179-13.802 13.802S8.388 29.8 16.011 29.8c7.622 0 13.801-6.178 13.802-13.8v-.017a13.72 13.72 0 0 0-4.047-9.748z"/></symbol></defs></svg>