<svg aria-hidden="true" style="width:0;height:0;position:absolute;overflow:hidden" xmlns="http://www.w3.org/2000/svg"><defs><symbol id="icon-logo-1" viewBox="0 0 31 32"><path d="M6.236 6.101c-.479.299-1.002 1.286-1.002 1.884 0 .673.434 2.183.927 3.23.568 1.181 1.929 3.454 2.557 4.232l.449.568-.359.479c-1.555 2.093-2.916 4.68-3.35 6.385-.583 2.273.449 3.634 2.557 3.379 1.69-.194 4.441-1.495 6.579-3.11.419-.314.852-.568.957-.568s.538.254.957.568c1.824 1.361 3.843 2.407 5.473 2.856 1.346.374 1.899.389 2.707.06.763-.299 1.032-.867 1.032-2.168 0-1.6-1.151-4.381-2.467-5.951a11.293 11.293 0 0 1-.912-1.286l-.389-.643.479-.643c1.779-2.467 2.707-4.202 3.14-5.877L25.87 8.3l-.299-1.002c-.239-.807-.389-1.062-.748-1.241-.538-.284-1.944-.284-2.841-.015-1.54.479-3.978 1.764-5.533 2.931-.449.329-.897.568-1.002.538-.105-.045-.553-.344-.987-.658-1.062-.807-4.441-2.557-5.383-2.811-1.077-.284-2.333-.254-2.841.06zm3.185 1.57c.568.209 4.396 2.692 4.576 2.961.06.105-.688.957-1.854 2.123l-1.944 1.944-1.002-1.51C7.806 11.066 7.133 9.57 7.059 8.404l-.06-.927h.942c.523.015 1.196.105 1.48.194zm14.699.135c.224.852-.987 3.723-2.437 5.772l-.763 1.092-1.929-1.914c-1.062-1.047-1.944-1.959-1.944-2.019 0-.165 1.75-1.361 2.901-2.004 1.391-.763 2.721-1.241 3.469-1.241.523-.015.643.045.703.314zm-6.37 6.041c1.092 1.121 1.989 2.108 1.989 2.198 0 .224-3.933 4.142-4.172 4.142-.209 0-3.843-3.499-4.067-3.918-.209-.389 1.271-2.258 2.736-3.439.688-.553 1.301-1.002 1.376-1.002.09-.015 1.047.897 2.138 2.019zm-5.503 5.637 1.929 1.914-.613.449c-2.123 1.54-4.486 2.647-5.757 2.721-.643.03-.703 0-.763-.344-.12-.912.628-2.931 1.735-4.665.748-1.151 1.421-2.078 1.48-2.034.015.03.912.912 1.989 1.959zm9.39-1.047c1.884 2.796 2.916 5.518 2.318 6.116-.284.284-1.75-.105-3.275-.852-1.406-.703-3.634-2.108-3.634-2.303 0-.06.404-.508.912-1.002a57.602 57.602 0 0 0 1.899-1.899c.538-.553 1.017-1.002 1.062-1.002s.374.419.718.942z"/></symbol></defs></svg>