<svg aria-hidden="true" style="position:absolute;width:0;height:0;overflow:hidden" xmlns="http://www.w3.org/2000/svg">
  <defs>
    <symbol id="icon-search" viewBox="0 0 32 32">
      <path fill="none" stroke-linejoin="round" stroke-linecap="round" stroke-width="2.667" d="M14.667 25.333c5.891 0 10.667-4.776 10.667-10.667S20.558 3.999 14.667 3.999v0C8.776 3.999 4 8.775 4 14.666s4.776 10.667 10.667 10.667v0zM28 28l-5.8-5.8"/>
    </symbol>
    <symbol id="icon-film" viewBox="0 0 32 32">
      <path fill="none"  stroke-linejoin="round" stroke-linecap="round" stroke-width="2.667" d="M26.427 2.667H5.574a2.907 2.907 0 0 0-2.907 2.907v20.853a2.907 2.907 0 0 0 2.907 2.907h20.853a2.907 2.907 0 0 0 2.907-2.907V5.574a2.907 2.907 0 0 0-2.907-2.907zM9.333 2.667v26.667M22.667 2.667v26.667M2.667 16h26.667M2.667 9.333h6.667M2.667 22.667h6.667M22.667 22.667h6.667M22.667 9.333h6.667"/>
    </symbol>
    <symbol id="icon-logo-1" viewBox="0 0 31 32">
      <path d="M6.236 6.101c-0.479 0.299-1.002 1.286-1.002 1.884 0 0.673 0.434 2.183 0.927 3.23 0.568 1.181 1.929 3.454 2.557 4.232l0.449 0.568-0.359 0.479c-1.555 2.093-2.916 4.68-3.35 6.385-0.583 2.273 0.449 3.634 2.557 3.379 1.69-0.194 4.441-1.495 6.579-3.11 0.419-0.314 0.852-0.568 0.957-0.568s0.538 0.254 0.957 0.568c1.824 1.361 3.843 2.407 5.473 2.856 1.346 0.374 1.899 0.389 2.707 0.060 0.763-0.299 1.032-0.867 1.032-2.168 0-1.6-1.151-4.381-2.467-5.951-0.299-0.359-0.703-0.927-0.912-1.286l-0.389-0.643 0.479-0.643c1.779-2.467 2.707-4.202 3.14-5.877l0.299-1.196-0.299-1.002c-0.239-0.807-0.389-1.062-0.748-1.241-0.538-0.284-1.944-0.284-2.841-0.015-1.54 0.479-3.978 1.764-5.533 2.931-0.449 0.329-0.897 0.568-1.002 0.538-0.105-0.045-0.553-0.344-0.987-0.658-1.062-0.807-4.441-2.557-5.383-2.811-1.077-0.284-2.333-0.254-2.841 0.060zM9.421 7.671c0.568 0.209 4.396 2.692 4.576 2.961 0.060 0.105-0.688 0.957-1.854 2.123l-1.944 1.944-1.002-1.51c-1.391-2.123-2.064-3.619-2.138-4.785l-0.060-0.927h0.942c0.523 0.015 1.196 0.105 1.48 0.194zM24.12 7.806c0.224 0.852-0.987 3.723-2.437 5.772l-0.763 1.092-1.929-1.914c-1.062-1.047-1.944-1.959-1.944-2.019 0-0.165 1.75-1.361 2.901-2.004 1.391-0.763 2.721-1.241 3.469-1.241 0.523-0.015 0.643 0.045 0.703 0.314zM17.75 13.847c1.092 1.121 1.989 2.108 1.989 2.198 0 0.224-3.933 4.142-4.172 4.142-0.209 0-3.843-3.499-4.067-3.918-0.209-0.389 1.271-2.258 2.736-3.439 0.688-0.553 1.301-1.002 1.376-1.002 0.090-0.015 1.047 0.897 2.138 2.019zM12.247 19.484l1.929 1.914-0.613 0.449c-2.123 1.54-4.486 2.647-5.757 2.721-0.643 0.030-0.703 0-0.763-0.344-0.12-0.912 0.628-2.931 1.735-4.665 0.748-1.151 1.421-2.078 1.48-2.034 0.015 0.030 0.912 0.912 1.989 1.959zM21.637 18.437c1.884 2.796 2.916 5.518 2.318 6.116-0.284 0.284-1.75-0.105-3.275-0.852-1.406-0.703-3.634-2.108-3.634-2.303 0-0.060 0.404-0.508 0.912-1.002 0.508-0.479 1.361-1.331 1.899-1.899 0.538-0.553 1.017-1.002 1.062-1.002s0.374 0.419 0.718 0.942z"></path>
    </symbol>
    <symbol id="icon--1" viewBox="0 0 32 32">
      <path d="M12.074 6.809c-0.198 0.124-0.415 0.533-0.415 0.781 0 0.279 0.18 0.905 0.384 1.34 0.236 0.49 0.8 1.433 1.060 1.755l0.186 0.236-0.149 0.198c-0.645 0.868-1.209 1.941-1.389 2.648-0.242 0.943 0.186 1.507 1.060 1.402 0.701-0.081 1.842-0.62 2.729-1.29 0.174-0.13 0.354-0.236 0.397-0.236s0.223 0.105 0.397 0.236c0.757 0.564 1.594 0.998 2.27 1.184 0.558 0.155 0.788 0.161 1.122 0.025 0.316-0.124 0.428-0.36 0.428-0.899 0-0.664-0.478-1.817-1.023-2.468-0.124-0.149-0.291-0.384-0.378-0.533l-0.161-0.267 0.198-0.267c0.738-1.023 1.122-1.743 1.302-2.437l0.124-0.496-0.124-0.415c-0.099-0.335-0.161-0.44-0.31-0.515-0.223-0.118-0.806-0.118-1.178-0.006-0.639 0.198-1.65 0.732-2.295 1.216-0.186 0.136-0.372 0.236-0.415 0.223-0.043-0.019-0.229-0.143-0.409-0.273-0.44-0.335-1.842-1.060-2.233-1.166-0.447-0.118-0.967-0.105-1.178 0.025zM13.395 7.46c0.236 0.087 1.823 1.116 1.898 1.228 0.025 0.043-0.285 0.397-0.769 0.881l-0.806 0.806-0.415-0.626c-0.577-0.881-0.856-1.501-0.887-1.984l-0.025-0.385h0.391c0.217 0.006 0.496 0.043 0.614 0.081zM19.491 7.516c0.093 0.354-0.409 1.544-1.011 2.394l-0.316 0.453-0.8-0.794c-0.44-0.434-0.806-0.812-0.806-0.837 0-0.068 0.726-0.564 1.203-0.831 0.577-0.316 1.129-0.515 1.439-0.515 0.217-0.006 0.267 0.019 0.291 0.13zM16.85 10.022c0.453 0.465 0.825 0.874 0.825 0.912 0 0.093-1.631 1.718-1.73 1.718-0.087 0-1.594-1.451-1.687-1.625-0.087-0.161 0.527-0.936 1.135-1.426 0.285-0.229 0.54-0.415 0.571-0.415 0.037-0.006 0.434 0.372 0.887 0.837zM14.567 12.36l0.8 0.794-0.254 0.186c-0.881 0.639-1.86 1.098-2.388 1.129-0.267 0.012-0.291 0-0.316-0.143-0.050-0.378 0.26-1.216 0.719-1.935 0.31-0.478 0.589-0.862 0.614-0.843 0.006 0.012 0.378 0.378 0.825 0.812zM18.462 11.926c0.781 1.16 1.209 2.288 0.961 2.536-0.118 0.118-0.726-0.043-1.358-0.354-0.583-0.291-1.507-0.874-1.507-0.955 0-0.025 0.167-0.211 0.378-0.415 0.211-0.198 0.564-0.552 0.788-0.788 0.223-0.229 0.422-0.415 0.44-0.415s0.155 0.174 0.298 0.391z"></path>
      <path d="M11.305 18.76c-0.136 0.093-0.143 0.143-0.143 0.8 0 0.527 0.025 0.719 0.087 0.775 0.056 0.050 0.285 0.068 0.639 0.056 0.533-0.019 0.546-0.025 0.564-0.174 0.019-0.155 0.012-0.155-0.434-0.155h-0.453l-0.019-0.49c-0.012-0.354 0.006-0.509 0.062-0.54 0.043-0.031 0.254-0.056 0.471-0.056 0.372 0 0.391-0.006 0.372-0.143-0.019-0.124-0.056-0.136-0.515-0.155-0.372-0.012-0.533 0.006-0.633 0.081z"></path>
      <path d="M13.538 18.71l-0.453 0.025v1.668h0.217c0.217 0 0.217 0 0.217-0.279 0-0.26 0.012-0.279 0.155-0.279 0.124 0 0.198 0.068 0.329 0.279 0.143 0.236 0.198 0.273 0.372 0.279 0.236 0 0.242-0.025 0.068-0.304l-0.124-0.205 0.124-0.124c0.105-0.093 0.13-0.192 0.13-0.471 0-0.583-0.105-0.639-1.036-0.589zM14.158 19.107c0.031 0.056 0.043 0.174 0.019 0.26-0.037 0.155-0.068 0.167-0.347 0.167h-0.31v-0.564l0.285 0.019c0.186 0.012 0.316 0.056 0.354 0.118z"></path>
      <path d="M15.398 19.504c-0.174 0.459-0.291 0.856-0.26 0.868 0.093 0.062 0.366-0.043 0.434-0.161 0.050-0.093 0.13-0.118 0.391-0.118 0.304 0 0.335 0.012 0.372 0.155 0.031 0.13 0.074 0.155 0.254 0.155 0.118 0 0.217-0.025 0.217-0.050 0-0.031-0.068-0.217-0.149-0.422-0.081-0.198-0.217-0.571-0.31-0.819-0.174-0.447-0.174-0.447-0.403-0.447h-0.236l-0.31 0.837zM16.081 19.504l0.099 0.279h-0.217c-0.118 0-0.211-0.031-0.211-0.062 0-0.087 0.174-0.496 0.211-0.496 0.012 0 0.068 0.124 0.118 0.279z"></path>
      <path d="M17.302 18.822c0 0.149 0.012 0.155 0.403 0.155 0.223 0 0.403 0.019 0.403 0.037s-0.18 0.26-0.403 0.527c-0.298 0.36-0.403 0.533-0.403 0.676v0.186h1.364v-0.155c0-0.149-0.012-0.155-0.391-0.155-0.217 0-0.409-0.019-0.434-0.037-0.019-0.019 0.155-0.267 0.397-0.546 0.304-0.354 0.428-0.552 0.428-0.676v-0.167h-1.364v0.155z"></path>
      <path d="M20.186 19.045c-0.099 0.205-0.205 0.391-0.229 0.403-0.025 0.019-0.118-0.112-0.205-0.285-0.167-0.335-0.248-0.397-0.465-0.36-0.13 0.019-0.124 0.043 0.149 0.583 0.18 0.36 0.285 0.651 0.285 0.794 0 0.211 0.006 0.223 0.217 0.223s0.217-0.006 0.217-0.242c0-0.155 0.099-0.453 0.279-0.837 0.155-0.335 0.279-0.614 0.279-0.633 0-0.012-0.081-0.025-0.174-0.025-0.155 0-0.198 0.050-0.354 0.378z"></path>
      <path d="M27.969 21.426c0 0.050-0.056 0.093-0.118 0.093s-0.18 0.050-0.26 0.112c-0.105 0.093-0.136 0.18-0.136 0.409 0 0.384 0.099 0.471 0.571 0.515 0.372 0.037 0.384 0.043 0.366 0.198s-0.031 0.161-0.453 0.167c-0.416 0.006-0.434 0.012-0.434 0.155 0 0.13 0.031 0.149 0.242 0.167 0.13 0.012 0.285 0.062 0.335 0.118 0.087 0.081 0.099 0.081 0.149-0.006 0.031-0.056 0.124-0.099 0.205-0.099 0.229 0 0.422-0.291 0.384-0.583-0.043-0.329-0.155-0.416-0.577-0.465-0.291-0.031-0.372-0.062-0.384-0.155-0.031-0.161 0.093-0.223 0.471-0.223 0.304 0 0.322-0.012 0.322-0.155 0-0.13-0.031-0.155-0.186-0.155-0.124 0-0.186-0.031-0.186-0.093 0-0.056-0.056-0.093-0.155-0.093s-0.155 0.037-0.155 0.093z"></path>
      <path d="M3.206 21.612c-0.087 0.087-0.105 0.236-0.105 0.874v0.769h0.49c0.874 0 0.992-0.105 0.998-0.874 0-0.75-0.062-0.825-0.757-0.85-0.428-0.019-0.546-0.006-0.626 0.081zM4.118 21.929c0.068 0.062 0.099 0.211 0.099 0.459 0 0.447-0.099 0.571-0.428 0.546l-0.223-0.019-0.019-0.546-0.019-0.54h0.248c0.143 0 0.285 0.043 0.341 0.099z"></path>
      <path d="M5.271 22.35c0 0.701 0.012 0.837 0.099 0.868 0.056 0.019 0.347 0.037 0.651 0.037 0.546 0 0.552 0 0.552-0.155 0-0.143-0.019-0.149-0.447-0.167l-0.453-0.019v-0.186c0-0.186 0.006-0.186 0.36-0.205 0.329-0.019 0.354-0.031 0.354-0.167 0-0.149-0.019-0.155-0.378-0.155-0.372 0-0.372 0-0.354-0.174 0.019-0.161 0.031-0.167 0.471-0.186 0.428-0.019 0.447-0.025 0.447-0.167 0-0.155 0-0.155-0.651-0.155h-0.651v0.831z"></path>
      <path d="M7.070 21.575c0 0.037 0.143 0.428 0.316 0.874l0.31 0.806h0.459l0.298-0.794c0.161-0.434 0.291-0.825 0.291-0.868 0-0.037-0.068-0.074-0.155-0.074-0.18 0-0.273 0.13-0.465 0.682-0.081 0.223-0.161 0.428-0.186 0.453s-0.136-0.211-0.254-0.527c-0.205-0.552-0.223-0.577-0.415-0.595-0.112-0.012-0.198 0.006-0.198 0.043z"></path>
      <path d="M9.302 22.388v0.868h0.583c0.453 0 0.608-0.025 0.682-0.099 0.174-0.167 0.112-0.205-0.347-0.223l-0.453-0.019v-0.186c0-0.186 0.006-0.186 0.36-0.205 0.329-0.019 0.354-0.031 0.354-0.167 0-0.149-0.019-0.155-0.378-0.155-0.372 0-0.372 0-0.354-0.174 0.019-0.161 0.031-0.167 0.471-0.186 0.428-0.019 0.447-0.025 0.447-0.167v-0.155h-1.364v0.868z"></path>
      <path d="M11.287 22.288c0 0.422 0.019 0.812 0.037 0.868 0.031 0.081 0.149 0.099 0.651 0.099 0.608 0 0.614 0 0.614-0.155 0-0.143-0.019-0.149-0.415-0.167l-0.422-0.019-0.019-0.701-0.019-0.695h-0.428v0.769z"></path>
      <path d="M13.246 21.656c-0.074 0.105-0.099 0.298-0.099 0.769 0 0.806 0.025 0.831 0.763 0.831 0.75 0 0.788-0.043 0.788-0.868 0-0.831-0.037-0.868-0.8-0.868-0.509 0-0.564 0.012-0.651 0.136zM14.264 22.388v0.558h-0.335c-0.391 0-0.409-0.025-0.409-0.558s0.019-0.558 0.409-0.558h0.335v0.558z"></path>
      <path d="M15.38 22.381v0.874h0.186c0.174 0 0.186-0.012 0.186-0.248v-0.248h0.36c0.478 0 0.602-0.043 0.688-0.223 0.099-0.217 0.081-0.713-0.031-0.862-0.081-0.105-0.18-0.124-0.738-0.143l-0.651-0.025v0.874zM16.335 21.867c0.068 0.025 0.099 0.118 0.099 0.279 0 0.198-0.025 0.248-0.149 0.279-0.081 0.019-0.229 0.025-0.322 0.012-0.155-0.019-0.18-0.050-0.198-0.223-0.012-0.118-0.006-0.248 0.012-0.298 0.037-0.087 0.378-0.118 0.558-0.050z"></path>
      <path d="M17.488 22.388v0.868h1.364v-0.155c0-0.143-0.019-0.149-0.447-0.167l-0.453-0.019v-0.186c0-0.186 0.006-0.186 0.36-0.205 0.329-0.019 0.354-0.031 0.354-0.167 0-0.149-0.019-0.155-0.378-0.155-0.372 0-0.372 0-0.354-0.174 0.019-0.161 0.031-0.167 0.453-0.198 0.384-0.025 0.434-0.043 0.434-0.155 0-0.118-0.050-0.124-0.664-0.143l-0.67-0.019v0.874z"></path>
      <path d="M19.473 21.532c0 0.006-0.019 0.403-0.043 0.868l-0.037 0.856h0.223c0.217 0 0.223-0.006 0.242-0.267 0.019-0.229 0.037-0.26 0.186-0.279 0.136-0.019 0.192 0.025 0.329 0.26 0.149 0.254 0.192 0.285 0.384 0.285h0.217l-0.155-0.26-0.149-0.26 0.124-0.099c0.186-0.155 0.223-0.726 0.056-0.93-0.118-0.143-0.174-0.155-0.75-0.174-0.347-0.012-0.626-0.012-0.626 0zM20.428 21.867c0.068 0.025 0.099 0.118 0.099 0.279v0.242h-0.682v-0.236c0-0.13 0.019-0.26 0.043-0.279 0.050-0.056 0.409-0.056 0.54-0.006z"></path>
      <path d="M21.705 21.631c-0.198 0.161-0.236 0.558-0.062 0.769 0.118 0.155 0.174 0.174 0.533 0.174h0.397v0.372h-0.496c-0.453 0-0.496 0.012-0.496 0.124 0 0.118 0.037 0.124 0.626 0.112 0.726-0.012 0.8-0.056 0.8-0.447 0-0.409-0.099-0.496-0.614-0.521-0.409-0.025-0.44-0.037-0.44-0.167 0-0.18 0.099-0.217 0.564-0.217 0.347 0 0.366-0.006 0.366-0.155 0-0.155-0.006-0.155-0.521-0.155-0.403 0-0.552 0.025-0.657 0.112z"></path>
      <path d="M23.609 21.563c-0.025 0.019-0.043 0.093-0.043 0.155 0 0.093 0.050 0.112 0.335 0.112 0.688 0 0.719 0.174 0.099 0.626-0.409 0.298-0.434 0.329-0.434 0.558v0.242h1.302v-0.155c0-0.149-0.012-0.155-0.403-0.155-0.223 0-0.403-0.019-0.403-0.050 0-0.025 0.143-0.143 0.316-0.26 0.372-0.248 0.502-0.471 0.453-0.744-0.062-0.285-0.229-0.372-0.744-0.372-0.242 0-0.459 0.019-0.478 0.043z"></path>
      <path d="M26.388 21.774c-0.093 0.136-0.18 0.291-0.198 0.341s-0.099 0.087-0.18 0.087c-0.136 0-0.149-0.025-0.149-0.31 0-0.304-0.006-0.31-0.186-0.31h-0.186v1.674h0.186c0.174 0 0.18-0.006 0.198-0.36 0.019-0.304 0.037-0.354 0.143-0.354 0.087 0 0.18 0.105 0.31 0.354 0.167 0.322 0.205 0.36 0.391 0.36 0.105 0 0.198-0.019 0.198-0.043 0-0.019-0.099-0.217-0.223-0.434l-0.217-0.397 0.217-0.391c0.124-0.223 0.223-0.416 0.223-0.434s-0.081-0.037-0.186-0.037c-0.149 0-0.217 0.050-0.341 0.254z"></path>
    </symbol>
    <symbol id="facebook" width="34" height="34" fill="none" xmlns="http://www.w3.org/2000/svg">
      <path d="M17 34c9.389 0 17-7.611 17-17S26.389 0 17 0 0 7.611 0 17s7.611 17 17 17Z"/>
      <path d="M21.724 16.98H18.95V27.2h-4.202V16.98H12.75V13.39h1.998v-2.324c0-1.662.785-4.265 4.24-4.265l3.112.013V10.3h-2.258c-.37 0-.891.187-.891.98v2.113h3.14l-.367 3.588Z" fill="#fff"/>
    </symbol>
    <symbol id="telegram" width="34" height="34" fill="none" xmlns="http://www.w3.org/2000/svg">
      <circle cx="17" cy="17" r="17"/>
      <path d="m13.671 19.524-.337 4.43c.483 0 .692-.194.943-.426l2.263-2.02 4.69 3.207c.861.447 1.467.211 1.7-.739l3.078-13.464v-.001c.274-1.187-.46-1.651-1.297-1.36L6.614 15.617c-1.235.448-1.217 1.09-.21 1.382l4.627 1.343 10.746-6.276c.506-.313.966-.14.588.173l-8.693 7.285Z" fill="#fff"/>
    </symbol>
    <symbol id="github" width="34" height="34" fill="none" xmlns="http://www.w3.org/2000/svg">
      <circle cx="17" cy="17" r="17"/>
      <path d="M17 7C11.507 7 7 11.507 7 17c0 4.687 3.289 8.945 7.656 10v-3.308c-.433.094-.83.097-1.271-.033-.591-.174-1.071-.568-1.428-1.168-.227-.383-.63-.8-1.05-.769l-.103-1.167c.909-.078 1.694.554 2.16 1.337.208.349.447.553.753.643.295.088.613.046.983-.085.093-.741.433-1.018.69-1.41-2.605-.388-3.643-1.77-4.055-2.86-.546-1.449-.253-3.258.712-4.402.019-.022.053-.08.04-.12-.443-1.338.096-2.444.116-2.561.511.15.594-.152 2.22.835l.28.169c.118.07.08.03.198.02A8.484 8.484 0 0 1 17 11.828c.71.009 1.42.11 2.127.302l.091.01c-.008-.002.025-.006.08-.039 2.03-1.23 1.957-.828 2.502-1.005.02.118.551 1.242.113 2.562-.059.182 1.76 1.848.752 4.522-.412 1.09-1.45 2.473-4.054 2.861.334.51.735.78.733 1.83V27C23.71 25.945 27 21.687 27 17c0-5.493-4.507-10-10-10Z" fill="#fff"/>
    </symbol>
    <symbol id="icon-close" viewBox="0 0 32 32">
      <path stroke-width="2" d="m2.518 2 26.963 28M2 29.481 30 2.518"/>
    </symbol>
    <symbol id="icon-linkedin" viewBox="0 0 32 32">
      <path d="M12 12h5.535v2.837h0.079c0.77-1.381 2.655-2.837 5.464-2.837 5.842 0 6.922 3.637 6.922 8.367v9.633h-5.769v-8.54c0-2.037-0.042-4.657-3.001-4.657-3.005 0-3.463 2.218-3.463 4.509v8.688h-5.767v-18z"></path>
      <path d="M2 12h6v18h-6v-18z"></path>
      <path d="M8 7c0 1.657-1.343 3-3 3s-3-1.343-3-3c0-1.657 1.343-3 3-3s3 1.343 3 3z"></path>
    </symbol>
    <symbol id="icon-close_24px" viewBox="0 0 32 32"><path d="M31.439 3.166 28.273 0 15.719 12.552 3.167 0 .001 3.166l12.552 12.552L.001 28.272l3.166 3.166 12.552-12.554 12.554 12.554 3.166-3.166-12.554-12.554L31.439 3.166z"/></symbol><symbol id="icon-menu_24px" viewBox="0 0 48 32">
      <path d="M0 5.334V0h48v5.334H0zm0 13.332h48v-5.332H0v5.332zM0 32h48v-5.334H0V32z"/>
    </symbol>
    <symbol id="icon-close" viewBox="0 0 32 32">
      <path  d="M8.533 8.533l14.933 14.933M8.533 23.467l14.933-14.933"></path>
    </symbol>
    <symbol id="icon-close-modal" viewBox="0 0 32 32">
      <path stroke-linejoin="miter" stroke-linecap="butt" stroke-miterlimit="4" stroke-width="2.1333" d="M8.533 8.533l14.933 14.933"></path>
      <path stroke-linejoin="miter" stroke-linecap="butt" stroke-miterlimit="4" stroke-width="2.1333" d="M8.533 23.467l14.933-14.933"></path>
    </symbol>
    <symbol id="icon-person" viewBox="0 0 32 32">
      <path d="M16 16a5.333 5.333 0 1 0 0-10.666A5.333 5.333 0 1 0 16 16zm0 2.667c-3.561 0-10.667 1.787-10.667 5.333v1.333c0 .732.599 1.333 1.333 1.333h18.667c.732 0 1.333-.601 1.333-1.333V24c0-3.547-7.108-5.333-10.667-5.333z"/></symbol>
    <symbol id="icon-email" viewBox="0 0 32 32">
      <path d="M26.667 5.333H5.334A2.662 2.662 0 0 0 2.682 8l-.014 16c0 1.467 1.2 2.667 2.667 2.667h21.333c1.467 0 2.667-1.2 2.667-2.667V8c0-1.467-1.2-2.667-2.667-2.667zm-.534 5.668-9.426 5.892a1.343 1.343 0 0 1-1.421-.004l.006.003L5.866 11A1.133 1.133 0 1 1 7.07 9.083l-.004-.003 8.933 5.586 8.933-5.588a1.132 1.132 0 1 1 1.204 1.916l-.005.003z"/>
    </symbol>
  </defs>
</svg>
