<svg aria-hidden="true" style="position: absolute; width: 0; height: 0; overflow: hidden;" version="1.1" xmlns="http://www.w3.org/2000/svg" xmlns:xlink="http://www.w3.org/1999/xlink">
<defs>
<symbol id="icon-logo-1" viewBox="0 0 31 32">
<path d="M6.236 6.101c-0.479 0.299-1.002 1.286-1.002 1.884 0 0.673 0.434 2.183 0.927 3.23 0.568 1.181 1.929 3.454 2.557 4.232l0.449 0.568-0.359 0.479c-1.555 2.093-2.916 4.68-3.35 6.385-0.583 2.273 0.449 3.634 2.557 3.379 1.69-0.194 4.441-1.495 6.579-3.11 0.419-0.314 0.852-0.568 0.957-0.568s0.538 0.254 0.957 0.568c1.824 1.361 3.843 2.407 5.473 2.856 1.346 0.374 1.899 0.389 2.707 0.060 0.763-0.299 1.032-0.867 1.032-2.168 0-1.6-1.151-4.381-2.467-5.951-0.299-0.359-0.703-0.927-0.912-1.286l-0.389-0.643 0.479-0.643c1.779-2.467 2.707-4.202 3.14-5.877l0.299-1.196-0.299-1.002c-0.239-0.807-0.389-1.062-0.748-1.241-0.538-0.284-1.944-0.284-2.841-0.015-1.54 0.479-3.978 1.764-5.533 2.931-0.449 0.329-0.897 0.568-1.002 0.538-0.105-0.045-0.553-0.344-0.987-0.658-1.062-0.807-4.441-2.557-5.383-2.811-1.077-0.284-2.333-0.254-2.841 0.060zM9.421 7.671c0.568 0.209 4.396 2.692 4.576 2.961 0.060 0.105-0.688 0.957-1.854 2.123l-1.944 1.944-1.002-1.51c-1.391-2.123-2.064-3.619-2.138-4.785l-0.060-0.927h0.942c0.523 0.015 1.196 0.105 1.48 0.194zM24.12 7.806c0.224 0.852-0.987 3.723-2.437 5.772l-0.763 1.092-1.929-1.914c-1.062-1.047-1.944-1.959-1.944-2.019 0-0.165 1.75-1.361 2.901-2.004 1.391-0.763 2.721-1.241 3.469-1.241 0.523-0.015 0.643 0.045 0.703 0.314zM17.75 13.847c1.092 1.121 1.989 2.108 1.989 2.198 0 0.224-3.933 4.142-4.172 4.142-0.209 0-3.843-3.499-4.067-3.918-0.209-0.389 1.271-2.258 2.736-3.439 0.688-0.553 1.301-1.002 1.376-1.002 0.090-0.015 1.047 0.897 2.138 2.019zM12.247 19.484l1.929 1.914-0.613 0.449c-2.123 1.54-4.486 2.647-5.757 2.721-0.643 0.030-0.703 0-0.763-0.344-0.12-0.912 0.628-2.931 1.735-4.665 0.748-1.151 1.421-2.078 1.48-2.034 0.015 0.030 0.912 0.912 1.989 1.959zM21.637 18.437c1.884 2.796 2.916 5.518 2.318 6.116-0.284 0.284-1.75-0.105-3.275-0.852-1.406-0.703-3.634-2.108-3.634-2.303 0-0.060 0.404-0.508 0.912-1.002 0.508-0.479 1.361-1.331 1.899-1.899 0.538-0.553 1.017-1.002 1.062-1.002s0.374 0.419 0.718 0.942z"></path>
</symbol>
</defs>
</svg>
